<svg width="750" height="766" viewBox="0 0 750 766" fill="none" xmlns="http://www.w3.org/2000/svg">
<rect width="750" height="765.741" fill="white"/>
<path d="M35.6482 0V735.648H749.537" stroke="black" stroke-width="1.38889"/>
<path d="M36.574 597.685H294.907L732.407 0.694336" stroke="black" stroke-width="1.38889"/>
<path d="M160.417 657.871L725.463 530.324" stroke="black" stroke-width="0.925926"/>
<path d="M190.278 577.312C256.482 575.923 335.417 617.358 368.287 629.395C500.232 677.716 606.25 692.129 744.907 687.729" stroke="black" stroke-width="1.38889" stroke-dasharray="3.24 3.24"/>
<path d="M532.25 560.532H517.287L524.768 545.044L532.25 560.532Z" stroke="black" stroke-width="0.925926"/>
<path d="M513.762 537.662V536.782H517.269V541.019H516.47L516.262 539.907C515.648 540.775 514.745 541.204 513.565 541.204C512.396 541.204 511.447 540.81 510.741 540.012C510.023 539.225 509.664 538.183 509.664 536.898C509.664 535.613 510.023 534.572 510.729 533.773C511.435 532.986 512.384 532.593 513.576 532.593C514.56 532.593 515.37 532.859 516.007 533.38C516.644 533.9 517.037 534.607 517.176 535.475H516.169C516.065 534.861 515.764 534.375 515.289 534.016C514.815 533.657 514.236 533.484 513.576 533.484C512.697 533.484 511.991 533.796 511.47 534.41C510.949 535.023 510.683 535.857 510.683 536.898C510.683 537.94 510.949 538.773 511.47 539.387C511.991 540 512.697 540.313 513.576 540.313C514.352 540.313 515.023 540.058 515.567 539.56C516.111 539.063 516.389 538.438 516.389 537.662H513.762ZM524.225 536.319V532.778H525.198V541.019H524.225V537.222H519.63V541.019H518.658V532.778H519.63V536.319H524.225Z" fill="black"/>
<path d="M558.639 536.921H543.676L551.157 521.433L558.639 536.921Z" stroke="black" stroke-width="0.925926"/>
<path d="M532.234 513.715L534.074 509.166H535.347V517.407H534.398V514.768C534.398 513.032 534.41 511.632 534.433 510.567C534.248 511.076 534.005 511.701 533.704 512.442L531.667 517.407H530.833L528.785 512.442C528.484 511.701 528.241 511.076 528.056 510.567C528.079 511.632 528.09 513.032 528.09 514.768V517.407H527.141V509.166H528.414L530.324 513.854C530.59 514.502 530.903 515.289 531.262 516.227C531.759 514.919 532.083 514.085 532.234 513.715ZM544.397 513.287C544.397 514.606 544.026 515.66 543.274 516.458L544.339 517.581L543.748 518.171L542.626 516.991C541.989 517.396 541.272 517.592 540.45 517.592C539.258 517.592 538.309 517.199 537.591 516.4C536.862 515.613 536.503 514.572 536.503 513.287C536.503 512.002 536.862 510.96 537.591 510.162C538.309 509.375 539.258 508.981 540.45 508.981C541.642 508.981 542.591 509.375 543.32 510.162C544.038 510.96 544.397 512.002 544.397 513.287ZM540.45 516.701C541.029 516.701 541.538 516.562 541.966 516.296L540.924 515.197L541.515 514.606L542.603 515.752C543.123 515.139 543.378 514.317 543.378 513.287C543.378 512.245 543.112 511.412 542.58 510.798C542.047 510.185 541.341 509.873 540.45 509.873C539.559 509.873 538.853 510.185 538.32 510.798C537.788 511.412 537.522 512.245 537.522 513.287C537.522 514.329 537.788 515.162 538.32 515.775C538.853 516.389 539.559 516.701 540.45 516.701ZM548.609 514.56H545.264V513.727H548.609V514.56ZM554.247 509.653C555.185 510.405 555.474 511.632 555.474 513.345C555.474 516.03 554.421 517.685 552.465 517.685C550.983 517.685 549.953 516.852 549.71 515.463H550.659C550.844 516.331 551.493 516.805 552.465 516.805C553.796 516.805 554.479 515.706 554.502 513.507C554.051 514.166 553.194 514.629 552.407 514.629C551.539 514.629 550.856 514.363 550.358 513.842C549.849 513.322 549.594 512.65 549.594 511.852C549.594 511.053 549.849 510.382 550.37 509.861C550.879 509.34 551.562 509.074 552.43 509.074C553.159 509.074 553.761 509.271 554.247 509.653ZM551.122 513.217C551.458 513.576 551.898 513.75 552.43 513.75C552.963 513.75 553.402 513.576 553.75 513.217C554.097 512.87 554.27 512.419 554.27 511.852C554.27 511.285 554.097 510.833 553.75 510.474C553.402 510.127 552.963 509.954 552.43 509.954C551.898 509.954 551.458 510.127 551.122 510.486C550.787 510.845 550.613 511.296 550.613 511.852C550.613 512.407 550.787 512.859 551.122 513.217Z" fill="black"/>
<path d="M568.53 587.315H567.5L566.539 584.919H562.789L561.84 587.315H560.822L564.109 579.074H565.197L568.53 587.315ZM563.171 583.947L563.137 584.039H566.192L566.146 583.935C565.776 583.021 565.278 581.748 564.641 580.127C564.155 581.424 563.669 582.697 563.171 583.947ZM573.161 582.928C574.076 583.403 574.539 584.097 574.539 585C574.539 585.752 574.272 586.354 573.752 586.806C573.231 587.269 572.548 587.5 571.703 587.5C569.851 587.5 568.809 586.458 568.821 584.827H569.782C569.816 585.995 570.499 586.62 571.703 586.62C572.814 586.62 573.52 585.984 573.52 585C573.52 583.993 572.803 583.357 571.645 583.357H571.032V582.546H571.587C572.687 582.546 573.3 582.026 573.3 581.146C573.3 580.278 572.664 579.769 571.645 579.769C570.638 579.769 569.967 580.278 569.921 581.343H568.948C568.96 579.861 569.99 578.889 571.645 578.889C573.219 578.889 574.284 579.722 574.284 581.123C574.284 581.91 573.914 582.512 573.161 582.928ZM579.796 582.894C580.733 583.252 581.324 583.993 581.324 584.977C581.324 585.752 581.046 586.366 580.502 586.817C579.958 587.269 579.229 587.5 578.337 587.5C577.446 587.5 576.717 587.269 576.173 586.817C575.629 586.366 575.351 585.752 575.351 584.977C575.351 583.993 575.942 583.252 576.879 582.894C576.081 582.546 575.687 581.968 575.687 581.146C575.687 580.44 575.942 579.884 576.439 579.479C576.937 579.086 577.574 578.889 578.337 578.889C579.101 578.889 579.738 579.086 580.236 579.479C580.733 579.884 580.988 580.44 580.988 581.146C580.988 581.968 580.594 582.546 579.796 582.894ZM579.553 580.127C579.24 579.884 578.835 579.769 578.337 579.769C577.84 579.769 577.435 579.884 577.122 580.127C576.81 580.37 576.648 580.706 576.648 581.146C576.648 581.586 576.81 581.921 577.122 582.164C577.435 582.408 577.84 582.523 578.337 582.523C578.835 582.523 579.24 582.408 579.553 582.164C579.865 581.921 580.027 581.586 580.027 581.146C580.027 580.706 579.865 580.37 579.553 580.127ZM576.902 586.181C577.261 586.47 577.736 586.62 578.337 586.62C578.939 586.62 579.414 586.47 579.773 586.181C580.131 585.891 580.305 585.498 580.305 584.977C580.305 584.456 580.131 584.051 579.773 583.762C579.414 583.472 578.939 583.333 578.337 583.333C577.736 583.333 577.261 583.472 576.902 583.762C576.543 584.051 576.37 584.456 576.37 584.977C576.37 585.498 576.543 585.891 576.902 586.181ZM587.47 586.389C586.972 587.13 586.22 587.5 585.236 587.5C584.252 587.5 583.5 587.13 583.002 586.389C582.505 585.648 582.25 584.583 582.25 583.195C582.25 581.806 582.505 580.741 583.002 580C583.5 579.259 584.252 578.889 585.236 578.889C586.22 578.889 586.972 579.259 587.47 580C587.968 580.741 588.222 581.806 588.222 583.195C588.222 584.583 587.968 585.648 587.47 586.389ZM583.269 583.195C583.269 585.475 583.928 586.62 585.236 586.62C586.544 586.62 587.204 585.475 587.204 583.195C587.204 580.914 586.544 579.769 585.236 579.769C583.928 579.769 583.269 580.914 583.269 583.195Z" fill="black"/>
<path d="M494.213 602.176V601.296H499.502V602.06C497.616 604.178 496.62 606.667 496.539 609.537H495.532C495.613 606.678 496.493 604.398 498.38 602.176H494.213ZM500.079 602.176V601.296H505.368V602.06C503.482 604.178 502.486 606.667 502.405 609.537H501.399C501.48 606.678 502.359 604.398 504.246 602.176H500.079ZM505.945 602.176V601.296H511.235V602.06C509.348 604.178 508.353 606.667 508.272 609.537H507.265C507.346 606.678 508.225 604.398 510.112 602.176H505.945Z" fill="black"/>
<path d="M345.093 565.648V566.528H340.613V569.155H344.63V570.035H340.613V573.889H339.641V565.648H345.093ZM349.015 571.041H345.67V570.208H349.015V571.041ZM351.145 565.648H351.932V573.889H350.96V567.743H349.085V566.979L349.27 566.967C350.416 566.886 350.949 566.585 351.145 565.648ZM355.282 565.648H356.069V573.889H355.097V567.743H353.222V566.979L353.407 566.967C354.553 566.886 355.085 566.585 355.282 565.648ZM357.058 566.528V565.648H362.347V566.412C360.461 568.53 359.465 571.018 359.384 573.889H358.377C358.458 571.03 359.338 568.75 361.225 566.528H357.058Z" fill="black"/>
<path d="M292.778 536.019V536.898H288.299V539.525H292.315V540.405H288.299V544.259H287.326V536.019H292.778ZM296.7 541.412H293.355V540.579H296.7V541.412ZM298.83 536.019H299.618V544.259H298.645V538.113H296.77V537.35L296.955 537.338C298.101 537.257 298.634 536.956 298.83 536.019ZM303.812 538.889C304.692 538.889 305.375 539.144 305.872 539.664C306.37 540.185 306.613 540.856 306.613 541.667C306.613 542.465 306.358 543.137 305.838 543.657C305.317 544.178 304.622 544.444 303.754 544.444C302.956 544.444 302.308 544.213 301.798 543.762C301.277 543.31 301 542.708 300.953 541.968H301.926C302.018 542.975 302.794 543.565 303.754 543.565C304.831 543.565 305.595 542.789 305.595 541.667C305.595 540.544 304.831 539.769 303.754 539.769C302.944 539.769 302.377 540.104 302.065 540.764H301.162L301.856 536.019H306.115V536.898H302.643L302.25 539.491C302.701 539.086 303.222 538.889 303.812 538.889Z" fill="black"/>
<path d="M272.87 571.204V572.083H268.391V574.711H272.407V575.59H268.391V579.444H267.419V571.204H272.87ZM276.793 576.597H273.448V575.764H276.793V576.597ZM278.923 571.204H279.71V579.444H278.738V573.299H276.863V572.535L277.048 572.523C278.194 572.442 278.726 572.141 278.923 571.204ZM284.113 574.074C284.981 574.074 285.664 574.34 286.173 574.861C286.671 575.382 286.926 576.053 286.926 576.852C286.926 577.65 286.671 578.322 286.162 578.842C285.641 579.363 284.958 579.63 284.09 579.63C283.361 579.63 282.759 579.433 282.273 579.051C281.336 578.299 281.046 577.072 281.046 575.359C281.046 572.662 282.111 571.018 284.113 571.018C285.548 571.018 286.567 571.852 286.81 573.241H285.861C285.676 572.373 285.039 571.898 284.113 571.898C282.736 571.898 282.042 572.998 282.018 575.197C282.47 574.537 283.326 574.074 284.113 574.074ZM282.771 578.217C283.118 578.576 283.558 578.75 284.09 578.75C284.623 578.75 285.062 578.576 285.398 578.217C285.734 577.859 285.907 577.407 285.907 576.852C285.907 576.296 285.734 575.845 285.398 575.486C285.062 575.127 284.623 574.954 284.09 574.954C283.558 574.954 283.118 575.127 282.771 575.474C282.423 575.833 282.25 576.285 282.25 576.852C282.25 577.419 282.423 577.87 282.771 578.217Z" fill="black"/>
<path d="M201.111 561.944V562.824H196.632V565.451H200.648V566.331H196.632V570.185H195.66V561.944H201.111ZM205.034 567.338H201.689V566.505H205.034V567.338ZM207.164 561.944H207.951V570.185H206.979V564.039H205.104V563.275L205.289 563.264C206.435 563.183 206.967 562.882 207.164 561.944ZM211.301 561.944H212.088V570.185H211.116V564.039H209.241V563.275L209.426 563.264C210.572 563.183 211.104 562.882 211.301 561.944ZM215.438 561.944H216.225V570.185H215.252V564.039H213.377V563.275L213.563 563.264C214.708 563.183 215.241 562.882 215.438 561.944Z" fill="black"/>
<path d="M356.667 423.056V423.935H352.187V426.563H356.204V427.442H352.187V431.296H351.215V423.056H356.667ZM360.589 428.449H357.244V427.616H360.589V428.449ZM362.719 423.056H363.506V431.296H362.534V425.151H360.659V424.387L360.844 424.375C361.99 424.294 362.523 423.993 362.719 423.056ZM369.113 426.875C370.051 427.234 370.641 427.975 370.641 428.958C370.641 429.734 370.363 430.347 369.819 430.799C369.275 431.25 368.546 431.482 367.655 431.482C366.764 431.482 366.034 431.25 365.49 430.799C364.946 430.347 364.669 429.734 364.669 428.958C364.669 427.975 365.259 427.234 366.196 426.875C365.398 426.528 365.004 425.949 365.004 425.127C365.004 424.421 365.259 423.866 365.757 423.461C366.254 423.067 366.891 422.87 367.655 422.87C368.419 422.87 369.055 423.067 369.553 423.461C370.051 423.866 370.305 424.421 370.305 425.127C370.305 425.949 369.912 426.528 369.113 426.875ZM368.87 424.109C368.558 423.866 368.153 423.75 367.655 423.75C367.157 423.75 366.752 423.866 366.44 424.109C366.127 424.352 365.965 424.688 365.965 425.127C365.965 425.567 366.127 425.903 366.44 426.146C366.752 426.389 367.157 426.505 367.655 426.505C368.153 426.505 368.558 426.389 368.87 426.146C369.183 425.903 369.345 425.567 369.345 425.127C369.345 424.688 369.183 424.352 368.87 424.109ZM366.22 430.162C366.578 430.451 367.053 430.602 367.655 430.602C368.257 430.602 368.731 430.451 369.09 430.162C369.449 429.873 369.622 429.479 369.622 428.958C369.622 428.438 369.449 428.032 369.09 427.743C368.731 427.454 368.257 427.315 367.655 427.315C367.053 427.315 366.578 427.454 366.22 427.743C365.861 428.032 365.687 428.438 365.687 428.958C365.687 429.479 365.861 429.873 366.22 430.162ZM378.701 431.296H377.671L376.71 428.901H372.96L372.011 431.296H370.993L374.28 423.056H375.368L378.701 431.296ZM373.342 427.928L373.308 428.021H376.363L376.317 427.917C375.947 427.002 375.449 425.729 374.812 424.109C374.326 425.405 373.84 426.678 373.342 427.928Z" fill="black"/>
<path d="M475.972 380.556C474.85 380.556 473.935 380.162 473.229 379.387C472.523 378.611 472.164 377.558 472.164 376.25C472.164 374.942 472.523 373.889 473.229 373.114C473.935 372.338 474.85 371.945 475.972 371.945C477.697 371.945 479.074 372.882 479.479 374.78H478.495C478.137 373.426 477.188 372.836 475.972 372.836C475.127 372.836 474.456 373.137 473.947 373.739C473.438 374.352 473.183 375.185 473.183 376.25C473.183 377.315 473.438 378.148 473.947 378.75C474.456 379.364 475.127 379.665 475.972 379.665C476.609 379.665 477.164 379.468 477.662 379.074C478.16 378.692 478.449 378.125 478.553 377.373H479.525C479.421 378.391 479.039 379.178 478.357 379.722C477.674 380.278 476.887 380.556 475.972 380.556ZM483.683 377.523H480.338V376.69H483.683V377.523ZM485.813 372.13H486.6V380.371H485.628V374.225H483.753V373.461L483.938 373.449C485.084 373.368 485.616 373.067 485.813 372.13ZM487.589 373.009V372.13H492.878V372.894C490.991 375.012 489.996 377.5 489.915 380.371H488.908C488.989 377.512 489.869 375.232 491.755 373.009H487.589Z" fill="black"/>
<path d="M478.287 297.384C479.236 297.743 479.711 298.391 479.711 299.352C479.711 300.775 478.761 301.667 477.037 301.667H473.437V293.426H476.863C478.495 293.426 479.375 294.329 479.375 295.579C479.375 296.4 479.016 297.002 478.287 297.384ZM476.794 294.305H474.41V297.025H476.794C477.87 297.025 478.426 296.504 478.426 295.613C478.426 294.815 477.859 294.305 476.794 294.305ZM474.41 300.787H476.991C478.136 300.787 478.738 300.266 478.738 299.352C478.738 298.379 478.148 297.893 476.979 297.893H474.41V300.787ZM483.806 298.819H480.461V297.986H483.806V298.819ZM485.902 300.787H490.254V301.667H484.814L484.838 301.215C484.919 299.977 485.301 298.97 486.632 298.194L487.673 297.592C488.703 296.991 489.12 296.47 489.12 295.625C489.12 294.734 488.518 294.12 487.488 294.12C486.342 294.12 485.763 294.71 485.763 295.891H484.803C484.791 294.213 485.798 293.241 487.511 293.241C488.287 293.241 488.923 293.46 489.409 293.9C489.895 294.352 490.138 294.919 490.138 295.625C490.138 296.69 489.513 297.581 488.263 298.31L487.384 298.819C486.4 299.41 485.96 299.907 485.902 300.787Z" fill="black"/>
<path d="M538.611 198.519V199.398H534.132V202.025H538.148V202.905H534.132V206.759H533.16V198.519H538.611ZM542.534 203.912H539.189V203.079H542.534V203.912ZM544.63 205.88H548.982V206.759H543.542L543.565 206.308C543.646 205.069 544.028 204.063 545.359 203.287L546.401 202.685C547.431 202.083 547.848 201.563 547.848 200.718C547.848 199.826 547.246 199.213 546.216 199.213C545.07 199.213 544.491 199.803 544.491 200.984H543.531C543.519 199.306 544.526 198.333 546.239 198.333C547.014 198.333 547.651 198.553 548.137 198.993C548.623 199.444 548.866 200.012 548.866 200.718C548.866 201.782 548.241 202.674 546.991 203.403L546.112 203.912C545.128 204.502 544.688 205 544.63 205.88ZM550.971 205.88H555.323V206.759H549.883L549.906 206.308C549.987 205.069 550.369 204.063 551.7 203.287L552.742 202.685C553.772 202.083 554.189 201.563 554.189 200.718C554.189 199.826 553.587 199.213 552.557 199.213C551.411 199.213 550.832 199.803 550.832 200.984H549.871C549.86 199.306 550.867 198.333 552.58 198.333C553.355 198.333 553.992 198.553 554.478 198.993C554.964 199.444 555.207 200.012 555.207 200.718C555.207 201.782 554.582 202.674 553.332 203.403L552.453 203.912C551.469 204.502 551.029 205 550.971 205.88Z" fill="black"/>
<path d="M601.748 76.4235L603.623 71.2036H604.641L601.586 79.4443H600.498L597.396 71.2036H598.426L600.336 76.4235C600.625 77.2337 600.868 77.9166 601.042 78.4721C601.215 77.9166 601.458 77.2337 601.748 76.4235ZM607.812 76.5971H604.467V75.7638H607.812V76.5971ZM609.908 78.5647H614.26V79.4443H608.82L608.843 78.9929C608.924 77.7545 609.306 76.7476 610.637 75.9721L611.679 75.3703C612.709 74.7684 613.126 74.2476 613.126 73.4027C613.126 72.5115 612.524 71.898 611.494 71.898C610.348 71.898 609.769 72.4883 609.769 73.6689H608.809C608.797 71.9906 609.804 71.0184 611.517 71.0184C612.293 71.0184 612.929 71.2383 613.415 71.6781C613.901 72.1295 614.144 72.6967 614.144 73.4027C614.144 74.4675 613.519 75.3587 612.269 76.0879L611.39 76.5971C610.406 77.1874 609.966 77.6851 609.908 78.5647ZM616.249 78.5647H620.601V79.4443H615.161L615.184 78.9929C615.265 77.7545 615.647 76.7476 616.978 75.9721L618.02 75.3703C619.05 74.7684 619.467 74.2476 619.467 73.4027C619.467 72.5115 618.865 71.898 617.835 71.898C616.689 71.898 616.11 72.4883 616.11 73.6689H615.15C615.138 71.9906 616.145 71.0184 617.858 71.0184C618.633 71.0184 619.27 71.2383 619.756 71.6781C620.242 72.1295 620.485 72.6967 620.485 73.4027C620.485 74.4675 619.86 75.3587 618.61 76.0879L617.731 76.5971C616.747 77.1874 616.307 77.6851 616.249 78.5647Z" fill="black"/>
<path d="M652.963 140.185V141.065H648.484V143.692H652.5V144.572H648.484V148.426H647.512V140.185H652.963ZM656.885 145.579H653.541V144.745H656.885V145.579ZM661.985 144.039C662.899 144.514 663.362 145.208 663.362 146.111C663.362 146.863 663.096 147.465 662.575 147.917C662.055 148.379 661.372 148.611 660.527 148.611C658.675 148.611 657.633 147.569 657.645 145.937H658.605C658.64 147.106 659.323 147.731 660.527 147.731C661.638 147.731 662.344 147.095 662.344 146.111C662.344 145.104 661.626 144.467 660.469 144.467H659.855V143.657H660.411C661.511 143.657 662.124 143.136 662.124 142.257C662.124 141.389 661.487 140.879 660.469 140.879C659.462 140.879 658.791 141.389 658.744 142.454H657.772C657.784 140.972 658.814 140 660.469 140C662.043 140 663.108 140.833 663.108 142.234C663.108 143.021 662.737 143.623 661.985 144.039ZM666.914 143.055C667.793 143.055 668.476 143.31 668.974 143.831C669.471 144.352 669.715 145.023 669.715 145.833C669.715 146.632 669.46 147.303 668.939 147.824C668.418 148.345 667.724 148.611 666.856 148.611C666.057 148.611 665.409 148.379 664.9 147.928C664.379 147.477 664.101 146.875 664.055 146.134H665.027C665.12 147.141 665.895 147.731 666.856 147.731C667.932 147.731 668.696 146.956 668.696 145.833C668.696 144.711 667.932 143.935 666.856 143.935C666.046 143.935 665.478 144.271 665.166 144.93H664.263L664.958 140.185H669.217V141.065H665.745L665.351 143.657C665.803 143.252 666.323 143.055 666.914 143.055Z" fill="black"/>
<path d="M153.287 531.643C154.236 532.002 154.711 532.65 154.711 533.611C154.711 535.035 153.761 535.926 152.037 535.926H148.437V527.685H151.863C153.495 527.685 154.375 528.588 154.375 529.838C154.375 530.66 154.016 531.261 153.287 531.643ZM151.794 528.565H149.41V531.285H151.794C152.87 531.285 153.426 530.764 153.426 529.873C153.426 529.074 152.859 528.565 151.794 528.565ZM149.41 535.046H151.991C153.136 535.046 153.738 534.525 153.738 533.611C153.738 532.639 153.148 532.153 151.979 532.153H149.41V535.046ZM158.806 533.079H155.461V532.245H158.806V533.079ZM162.708 530.555C163.588 530.555 164.27 530.81 164.768 531.331C165.266 531.852 165.509 532.523 165.509 533.333C165.509 534.132 165.254 534.803 164.733 535.324C164.213 535.845 163.518 536.111 162.65 536.111C161.851 536.111 161.203 535.879 160.694 535.428C160.173 534.977 159.895 534.375 159.849 533.634H160.821C160.914 534.641 161.689 535.231 162.65 535.231C163.726 535.231 164.49 534.456 164.49 533.333C164.49 532.211 163.726 531.435 162.65 531.435C161.84 531.435 161.273 531.771 160.96 532.43H160.057L160.752 527.685H165.011V528.565H161.539L161.145 531.157C161.597 530.752 162.118 530.555 162.708 530.555ZM170.71 531.504C171.647 531.863 172.237 532.604 172.237 533.588C172.237 534.363 171.96 534.977 171.416 535.428C170.872 535.879 170.142 536.111 169.251 536.111C168.36 536.111 167.631 535.879 167.087 535.428C166.543 534.977 166.265 534.363 166.265 533.588C166.265 532.604 166.855 531.863 167.793 531.504C166.994 531.157 166.601 530.579 166.601 529.757C166.601 529.051 166.855 528.495 167.353 528.09C167.851 527.697 168.487 527.5 169.251 527.5C170.015 527.5 170.652 527.697 171.149 528.09C171.647 528.495 171.902 529.051 171.902 529.757C171.902 530.579 171.508 531.157 170.71 531.504ZM170.466 528.738C170.154 528.495 169.749 528.379 169.251 528.379C168.753 528.379 168.348 528.495 168.036 528.738C167.723 528.981 167.561 529.317 167.561 529.757C167.561 530.197 167.723 530.532 168.036 530.775C168.348 531.018 168.753 531.134 169.251 531.134C169.749 531.134 170.154 531.018 170.466 530.775C170.779 530.532 170.941 530.197 170.941 529.757C170.941 529.317 170.779 528.981 170.466 528.738ZM167.816 534.792C168.175 535.081 168.649 535.231 169.251 535.231C169.853 535.231 170.328 535.081 170.686 534.792C171.045 534.502 171.219 534.109 171.219 533.588C171.219 533.067 171.045 532.662 170.686 532.373C170.328 532.083 169.853 531.944 169.251 531.944C168.649 531.944 168.175 532.083 167.816 532.373C167.457 532.662 167.284 533.067 167.284 533.588C167.284 534.109 167.457 534.502 167.816 534.792Z" fill="black"/>
<path d="M64.3982 577.477C65.3473 577.836 65.8219 578.484 65.8219 579.444C65.8219 580.868 64.8728 581.759 63.1482 581.759H59.5487V573.519H62.9746C64.6066 573.519 65.4862 574.421 65.4862 575.671C65.4862 576.493 65.1274 577.095 64.3982 577.477ZM62.9052 574.398H60.5209V577.118H62.9052C63.9816 577.118 64.5371 576.597 64.5371 575.706C64.5371 574.907 63.97 574.398 62.9052 574.398ZM60.5209 580.88H63.1019C64.2478 580.88 64.8496 580.359 64.8496 579.444C64.8496 578.472 64.2593 577.986 63.0904 577.986H60.5209V580.88ZM69.9172 578.912H66.5723V578.079H69.9172V578.912ZM75.7753 578.819H76.8864V579.699H75.7753V581.759H74.8031V579.699H70.6711V578.762L74.722 573.519H75.7753V578.819ZM74.8031 578.819V574.792L71.6896 578.819H74.8031ZM76.8863 574.398V573.519H82.1757V574.282C80.2891 576.4 79.2937 578.889 79.2127 581.759H78.2057C78.2868 578.9 79.1664 576.62 81.053 574.398H76.8863Z" fill="black"/>
<path d="M99.5833 624.074C98.4606 624.074 97.5463 623.68 96.8403 622.905C96.1343 622.129 95.7755 621.076 95.7755 619.768C95.7755 618.46 96.1343 617.407 96.8403 616.632C97.5463 615.856 98.4606 615.463 99.5833 615.463C101.308 615.463 102.685 616.4 103.09 618.298H102.106C101.748 616.944 100.799 616.354 99.5833 616.354C98.7384 616.354 98.0671 616.655 97.5579 617.257C97.0486 617.87 96.794 618.703 96.794 619.768C96.794 620.833 97.0486 621.666 97.5579 622.268C98.0671 622.882 98.7384 623.183 99.5833 623.183C100.22 623.183 100.775 622.986 101.273 622.592C101.771 622.21 102.06 621.643 102.164 620.891H103.137C103.032 621.91 102.65 622.697 101.968 623.241C101.285 623.796 100.498 624.074 99.5833 624.074ZM107.294 621.041H103.949V620.208H107.294V621.041ZM109.424 615.648H110.211V623.889H109.239V617.743H107.364V616.979L107.549 616.967C108.695 616.886 109.227 616.585 109.424 615.648ZM116.249 620.949H117.36V621.828H116.249V623.889H115.277V621.828H111.145V620.891L115.195 615.648H116.249V620.949ZM115.277 620.949V616.921L112.163 620.949H115.277ZM119.721 615.648H120.508V623.889H119.536V617.743H117.661V616.979L117.846 616.967C118.992 616.886 119.524 616.585 119.721 615.648Z" fill="black"/>
<path d="M50.648 663.333V664.213H46.1689V666.84H50.1851V667.72H46.1689V671.574H45.1967V663.333H50.648ZM54.5705 668.727H51.2256V667.894H54.5705V668.727ZM59.8846 667.153C60.8221 667.512 61.4124 668.252 61.4124 669.236C61.4124 670.012 61.1346 670.625 60.5906 671.077C60.0466 671.528 59.3175 671.759 58.4263 671.759C57.5351 671.759 56.8059 671.528 56.2619 671.077C55.7179 670.625 55.4402 670.012 55.4402 669.236C55.4402 668.252 56.0304 667.512 56.9679 667.153C56.1693 666.806 55.7758 666.227 55.7758 665.405C55.7758 664.699 56.0304 664.144 56.5281 663.739C57.0258 663.345 57.6624 663.148 58.4263 663.148C59.1902 663.148 59.8267 663.345 60.3244 663.739C60.8221 664.144 61.0767 664.699 61.0767 665.405C61.0767 666.227 60.6832 666.806 59.8846 667.153ZM59.6415 664.387C59.329 664.144 58.924 664.028 58.4263 664.028C57.9286 664.028 57.5235 664.144 57.211 664.387C56.8985 664.63 56.7365 664.965 56.7365 665.405C56.7365 665.845 56.8985 666.181 57.211 666.424C57.5235 666.667 57.9286 666.783 58.4263 666.783C58.924 666.783 59.329 666.667 59.6415 666.424C59.954 666.181 60.1161 665.845 60.1161 665.405C60.1161 664.965 59.954 664.63 59.6415 664.387ZM56.9911 670.44C57.3499 670.729 57.8244 670.88 58.4263 670.88C59.0281 670.88 59.5027 670.729 59.8615 670.44C60.2203 670.151 60.3939 669.757 60.3939 669.236C60.3939 668.715 60.2203 668.31 59.8615 668.021C59.5027 667.732 59.0281 667.593 58.4263 667.593C57.8244 667.593 57.3499 667.732 56.9911 668.021C56.6323 668.31 56.4587 668.715 56.4587 669.236C56.4587 669.757 56.6323 670.151 56.9911 670.44ZM65.4061 666.204C66.2741 666.204 66.957 666.47 67.4663 666.991C67.9639 667.512 68.2186 668.183 68.2186 668.982C68.2186 669.78 67.9639 670.452 67.4547 670.972C66.9338 671.493 66.251 671.759 65.3829 671.759C64.6538 671.759 64.0519 671.563 63.5658 671.181C62.6283 670.428 62.3389 669.202 62.3389 667.489C62.3389 664.792 63.4038 663.148 65.4061 663.148C66.8413 663.148 67.8598 663.982 68.1028 665.371H67.1538C66.9686 664.502 66.332 664.028 65.4061 664.028C64.0288 664.028 63.3343 665.127 63.3112 667.327C63.7625 666.667 64.619 666.204 65.4061 666.204ZM64.0635 670.347C64.4107 670.706 64.8505 670.88 65.3829 670.88C65.9153 670.88 66.3551 670.706 66.6908 670.347C67.0264 669.989 67.2 669.537 67.2 668.982C67.2 668.426 67.0264 667.975 66.6908 667.616C66.3551 667.257 65.9153 667.083 65.3829 667.083C64.8505 667.083 64.4107 667.257 64.0635 667.604C63.7163 667.963 63.5426 668.414 63.5426 668.982C63.5426 669.549 63.7163 670 64.0635 670.347Z" fill="black"/>
<path d="M180.278 614.259V615.139H175.799V617.766H179.815V618.646H175.799V622.5H174.826V614.259H180.278ZM184.2 619.653H180.855V618.819H184.2V619.653ZM190.058 619.56H191.169V620.44H190.058V622.5H189.086V620.44H184.954V619.502L189.005 614.259H190.058V619.56ZM189.086 619.56V615.532L185.973 619.56H189.086Z" fill="black"/>
<path d="M261.157 618.982C260.035 618.982 259.12 618.588 258.414 617.813C257.708 617.037 257.349 615.984 257.349 614.676C257.349 613.368 257.708 612.315 258.414 611.539C259.12 610.764 260.035 610.37 261.157 610.37C262.882 610.37 264.259 611.308 264.664 613.206H263.68C263.322 611.852 262.373 611.262 261.157 611.262C260.312 611.262 259.641 611.563 259.132 612.164C258.623 612.778 258.368 613.611 258.368 614.676C258.368 615.741 258.623 616.574 259.132 617.176C259.641 617.789 260.312 618.09 261.157 618.09C261.794 618.09 262.349 617.894 262.847 617.5C263.345 617.118 263.634 616.551 263.738 615.799H264.711C264.606 616.817 264.224 617.604 263.542 618.148C262.859 618.704 262.072 618.982 261.157 618.982ZM268.868 615.949H265.523V615.116H268.868V615.949ZM272.77 613.426C273.649 613.426 274.332 613.681 274.83 614.201C275.328 614.722 275.571 615.394 275.571 616.204C275.571 617.002 275.316 617.674 274.795 618.195C274.274 618.715 273.58 618.982 272.712 618.982C271.913 618.982 271.265 618.75 270.756 618.299C270.235 617.847 269.957 617.245 269.911 616.505H270.883C270.976 617.512 271.751 618.102 272.712 618.102C273.788 618.102 274.552 617.326 274.552 616.204C274.552 615.081 273.788 614.306 272.712 614.306C271.902 614.306 271.335 614.641 271.022 615.301H270.119L270.814 610.556H275.073V611.435H271.601L271.207 614.028C271.659 613.623 272.179 613.426 272.77 613.426Z" fill="black"/>
<path d="M621.991 567.917V567.037H627.28V567.801C625.394 569.919 624.398 572.407 624.317 575.278H623.31C623.391 572.419 624.271 570.139 626.157 567.917H621.991ZM632.012 570.857C632.949 571.215 633.539 571.956 633.539 572.94C633.539 573.715 633.262 574.329 632.718 574.78C632.174 575.232 631.444 575.463 630.553 575.463C629.662 575.463 628.933 575.232 628.389 574.78C627.845 574.329 627.567 573.715 627.567 572.94C627.567 571.956 628.157 571.215 629.095 570.857C628.296 570.509 627.903 569.931 627.903 569.109C627.903 568.403 628.157 567.847 628.655 567.442C629.153 567.049 629.789 566.852 630.553 566.852C631.317 566.852 631.954 567.049 632.451 567.442C632.949 567.847 633.204 568.403 633.204 569.109C633.204 569.931 632.81 570.509 632.012 570.857ZM631.769 568.09C631.456 567.847 631.051 567.732 630.553 567.732C630.056 567.732 629.65 567.847 629.338 568.09C629.025 568.333 628.863 568.669 628.863 569.109C628.863 569.549 629.025 569.884 629.338 570.127C629.65 570.37 630.056 570.486 630.553 570.486C631.051 570.486 631.456 570.37 631.769 570.127C632.081 569.884 632.243 569.549 632.243 569.109C632.243 568.669 632.081 568.333 631.769 568.09ZM629.118 574.144C629.477 574.433 629.951 574.583 630.553 574.583C631.155 574.583 631.63 574.433 631.988 574.144C632.347 573.854 632.521 573.461 632.521 572.94C632.521 572.419 632.347 572.014 631.988 571.725C631.63 571.435 631.155 571.296 630.553 571.296C629.951 571.296 629.477 571.435 629.118 571.725C628.759 572.014 628.586 572.419 628.586 572.94C628.586 573.461 628.759 573.854 629.118 574.144ZM633.655 567.917V567.037H638.945V567.801C637.058 569.919 636.063 572.407 635.982 575.278H634.975C635.056 572.419 635.935 570.139 637.822 567.917H633.655Z" fill="black"/>
<path d="M670.382 565.556H669.352L668.391 563.16H664.641L663.692 565.556H662.674L665.961 557.315H667.049L670.382 565.556ZM665.023 562.188L664.988 562.28H668.044L667.998 562.176C667.627 561.262 667.13 559.989 666.493 558.368C666.007 559.664 665.521 560.938 665.023 562.188ZM675.013 561.169C675.927 561.644 676.39 562.338 676.39 563.241C676.39 563.993 676.124 564.595 675.603 565.046C675.083 565.509 674.4 565.741 673.555 565.741C671.703 565.741 670.661 564.699 670.673 563.067H671.633C671.668 564.236 672.351 564.861 673.555 564.861C674.666 564.861 675.372 564.225 675.372 563.241C675.372 562.234 674.654 561.597 673.497 561.597H672.883V560.787H673.439C674.539 560.787 675.152 560.266 675.152 559.387C675.152 558.519 674.515 558.009 673.497 558.009C672.49 558.009 671.819 558.519 671.772 559.583H670.8C670.812 558.102 671.842 557.13 673.497 557.13C675.071 557.13 676.136 557.963 676.136 559.364C676.136 560.151 675.765 560.752 675.013 561.169ZM679.942 560.185C680.821 560.185 681.504 560.44 682.002 560.961C682.5 561.482 682.743 562.153 682.743 562.963C682.743 563.762 682.488 564.433 681.967 564.954C681.446 565.475 680.752 565.741 679.884 565.741C679.085 565.741 678.437 565.509 677.928 565.058C677.407 564.607 677.129 564.005 677.083 563.264H678.055C678.148 564.271 678.923 564.861 679.884 564.861C680.96 564.861 681.724 564.086 681.724 562.963C681.724 561.84 680.96 561.065 679.884 561.065C679.074 561.065 678.506 561.401 678.194 562.06H677.291L677.986 557.315H682.245V558.195H678.773L678.379 560.787C678.831 560.382 679.351 560.185 679.942 560.185ZM688.949 564.63C688.451 565.37 687.699 565.741 686.715 565.741C685.731 565.741 684.979 565.37 684.481 564.63C683.984 563.889 683.729 562.824 683.729 561.435C683.729 560.046 683.984 558.982 684.481 558.241C684.979 557.5 685.731 557.13 686.715 557.13C687.699 557.13 688.451 557.5 688.949 558.241C689.447 558.982 689.701 560.046 689.701 561.435C689.701 562.824 689.447 563.889 688.949 564.63ZM684.747 561.435C684.747 563.715 685.407 564.861 686.715 564.861C688.023 564.861 688.683 563.715 688.683 561.435C688.683 559.155 688.023 558.009 686.715 558.009C685.407 558.009 684.747 559.155 684.747 561.435Z" fill="black"/>
<path d="M448.148 404.167L444.851 409.747L441.667 415.393L435.185 415.328L428.704 415.393L425.519 409.747L422.222 404.167L425.519 398.586L428.704 392.94L435.185 393.005L441.667 392.94L444.851 398.586L448.148 404.167Z" fill="black"/>
<path d="M435.451 398.759H437.185V410.296H434.998V402.519H432.34V400.979L432.6 400.963C434.22 400.85 435.111 400.315 435.451 398.759Z" fill="white"/>
<path d="M437.5 596.296L434.203 601.877L431.019 607.523L424.537 607.458L418.056 607.523L414.871 601.877L411.574 596.296L414.871 590.716L418.056 585.07L424.537 585.135L431.019 585.07L434.203 590.716L437.5 596.296Z" fill="black"/>
<path d="M422.605 600.579H428.552V602.426H420.159L420.207 601.567C420.256 600.66 420.369 600.044 420.758 599.185C421.147 598.326 421.99 597.581 423.237 597.014L424.372 596.43C425.717 595.782 426.219 595.183 426.219 594.194C426.219 593.141 425.506 592.477 424.323 592.477C422.994 592.477 422.33 593.173 422.33 594.583H420.224C420.207 592.12 421.649 590.629 424.388 590.629C425.619 590.629 426.608 590.937 427.337 591.569C428.066 592.201 428.423 593.028 428.423 594.032C428.423 595.798 427.467 596.933 425.376 597.97L424.307 598.537C423.14 599.169 422.686 599.623 422.605 600.579Z" fill="white"/>
<path d="M40.6726 750.756H42.6045V763.611H40.167V754.945H37.2059V753.229L37.4948 753.211C39.3004 753.085 40.2934 752.489 40.6726 750.756ZM52.1302 751.46C53.4844 752.489 54.1705 754.367 54.1705 757.075C54.1705 761.427 52.4191 763.972 49.1511 763.972C46.6052 763.972 44.8539 762.654 44.5108 760.397H46.7858C47.0205 761.535 47.7969 762.095 49.133 762.095C50.9386 762.095 51.8052 760.722 51.8955 757.671C51.1733 758.736 50.108 759.278 48.6816 759.278C47.3275 759.278 46.2622 758.863 45.4858 758.032C44.7094 757.22 44.3122 756.209 44.3122 755.017C44.3122 753.681 44.7636 752.597 45.6483 751.767C46.533 750.954 47.6886 750.539 49.0969 750.539C50.2886 750.539 51.2997 750.846 52.1302 751.46ZM47.3455 756.732C47.7969 757.184 48.3747 757.418 49.0969 757.418C49.8191 757.418 50.3969 757.184 50.8483 756.732C51.2997 756.281 51.5164 755.685 51.5164 754.963C51.5164 753.518 50.5414 752.507 49.0969 752.507C47.6705 752.507 46.6775 753.536 46.6775 754.963C46.6775 755.685 46.8941 756.281 47.3455 756.732ZM63.8202 758.592H65.5355V760.65H63.8202V763.611H61.3827V760.65H55.1355V758.339L61.148 750.756H63.8202V758.592ZM61.4369 758.592V753.374L57.3022 758.592H61.4369ZM71.6417 755.161C73.05 755.161 74.1333 755.577 74.9097 756.389C75.6681 757.202 76.0472 758.231 76.0472 759.44C76.0472 760.777 75.5958 761.86 74.7111 762.672C73.8264 763.485 72.6708 763.9 71.2445 763.9C69.9264 763.9 68.825 763.539 67.9403 762.835C67.0556 762.131 66.5861 761.156 66.4958 759.946H68.825C68.9875 761.174 69.9625 761.932 71.2445 761.932C72.707 761.932 73.7 760.903 73.7 759.44C73.7 757.978 72.707 756.949 71.2445 756.949C70.1611 756.949 69.4028 757.382 68.9875 758.249H66.7486L67.9403 750.756H75.3792V752.814H69.8542L69.2945 756.01C69.9806 755.45 70.757 755.161 71.6417 755.161Z" fill="black"/>
<path d="M5.88611 733.807C2.50972 733.807 0.740278 731.406 0.740278 727.091C0.740278 722.775 2.50972 720.374 5.88611 720.374C9.28056 720.374 11.05 722.775 11.05 727.091C11.05 731.406 9.28056 733.807 5.88611 733.807ZM5.88611 731.749C7.6375 731.749 8.50417 730.196 8.50417 727.091C8.50417 723.985 7.6375 722.432 5.88611 722.432C4.15278 722.432 3.28611 723.985 3.28611 727.091C3.28611 730.196 4.15278 731.749 5.88611 731.749Z" fill="black"/>
<path d="M5.88611 593.587C7.29444 593.587 8.37778 594.002 9.15417 594.815C9.9125 595.627 10.2917 596.657 10.2917 597.866C10.2917 599.202 9.84028 600.286 8.95556 601.098C8.07083 601.911 6.91528 602.326 5.48889 602.326C4.17083 602.326 3.06944 601.965 2.18472 601.261C1.3 600.557 0.830556 599.582 0.740278 598.372H3.06944C3.23194 599.6 4.20694 600.358 5.48889 600.358C6.95139 600.358 7.94444 599.329 7.94444 597.866C7.94444 596.404 6.95139 595.375 5.48889 595.375C4.40556 595.375 3.64722 595.808 3.23194 596.675H0.993056L2.18472 589.182H9.62361V591.24H4.09861L3.53889 594.436C4.225 593.876 5.00139 593.587 5.88611 593.587Z" fill="black"/>
<path d="M3.43056 68.9602H10.0569V71.0186H0.704167L0.758333 70.0616C0.8125 69.0505 0.938889 68.3644 1.37222 67.4074C1.80556 66.4505 2.74444 65.6199 4.13472 64.988L5.39861 64.338C6.89722 63.6158 7.45694 62.9477 7.45694 61.8463C7.45694 60.6727 6.6625 59.9324 5.34444 59.9324C3.86389 59.9324 3.12361 60.7088 3.12361 62.2797H0.776389C0.758333 59.5352 2.36528 57.8741 5.41667 57.8741C6.78889 57.8741 7.89028 58.2172 8.70278 58.9213C9.51528 59.6255 9.9125 60.5463 9.9125 61.6658C9.9125 63.6338 8.84722 64.8977 6.51806 66.0533L5.32639 66.6852C4.02639 67.3894 3.52083 67.8949 3.43056 68.9602ZM15.9895 62.5686C17.3978 62.5686 18.4811 62.9838 19.2575 63.7963C20.0159 64.6088 20.395 65.638 20.395 66.8477C20.395 68.1838 19.9436 69.2672 19.0589 70.0797C18.1742 70.8922 17.0186 71.3074 15.5922 71.3074C14.2742 71.3074 13.1728 70.9463 12.2881 70.2422C11.4034 69.538 10.9339 68.563 10.8436 67.3533H13.1728C13.3353 68.5811 14.3103 69.3394 15.5922 69.3394C17.0547 69.3394 18.0478 68.3102 18.0478 66.8477C18.0478 65.3852 17.0547 64.3561 15.5922 64.3561C14.5089 64.3561 13.7506 64.7894 13.3353 65.6561H11.0964L12.2881 58.163H19.727V60.2213H14.202L13.6422 63.4172C14.3284 62.8574 15.1047 62.5686 15.9895 62.5686Z" fill="black"/>
<path d="M293.914 750.756H295.845V763.611H293.408V754.945H290.447V753.229L290.736 753.211C292.541 753.085 293.534 752.489 293.914 750.756ZM305.371 751.46C306.725 752.489 307.411 754.367 307.411 757.075C307.411 761.427 305.66 763.972 302.392 763.972C299.846 763.972 298.095 762.654 297.752 760.397H300.027C300.261 761.535 301.038 762.095 302.374 762.095C304.18 762.095 305.046 760.722 305.136 757.671C304.414 758.736 303.349 759.278 301.923 759.278C300.568 759.278 299.503 758.863 298.727 758.032C297.95 757.22 297.553 756.209 297.553 755.017C297.553 753.681 298.005 752.597 298.889 751.767C299.774 750.954 300.93 750.539 302.338 750.539C303.53 750.539 304.541 750.846 305.371 751.46ZM300.586 756.732C301.038 757.184 301.616 757.418 302.338 757.418C303.06 757.418 303.638 757.184 304.089 756.732C304.541 756.281 304.757 755.685 304.757 754.963C304.757 753.518 303.782 752.507 302.338 752.507C300.911 752.507 299.918 753.536 299.918 754.963C299.918 755.685 300.135 756.281 300.586 756.732ZM307.648 752.814V750.756H316.441V752.706C315.015 754.222 313.949 755.829 313.281 757.545C312.613 759.26 312.252 761.282 312.216 763.611H309.688C309.761 759.44 311.187 755.847 313.949 752.814H307.648ZM321.638 755.161C323.047 755.161 324.13 755.577 324.906 756.389C325.665 757.202 326.044 758.231 326.044 759.44C326.044 760.777 325.592 761.86 324.708 762.672C323.823 763.485 322.667 763.9 321.241 763.9C319.923 763.9 318.822 763.539 317.937 762.835C317.052 762.131 316.583 761.156 316.492 759.946H318.822C318.984 761.174 319.959 761.932 321.241 761.932C322.704 761.932 323.697 760.903 323.697 759.44C323.697 757.978 322.704 756.949 321.241 756.949C320.158 756.949 319.399 757.382 318.984 758.249H316.745L317.937 750.756H325.376V752.814H319.851L319.291 756.01C319.977 755.45 320.754 755.161 321.638 755.161Z" fill="black"/>
<path d="M710.375 761.553H717.001V763.611H707.649L707.703 762.654C707.757 761.643 707.883 760.957 708.317 760C708.75 759.043 709.689 758.213 711.079 757.581L712.343 756.931C713.842 756.209 714.401 755.54 714.401 754.439C714.401 753.265 713.607 752.525 712.289 752.525C710.808 752.525 710.068 753.302 710.068 754.872H707.721C707.703 752.128 709.31 750.467 712.361 750.467C713.733 750.467 714.835 750.81 715.647 751.514C716.46 752.218 716.857 753.139 716.857 754.259C716.857 756.227 715.792 757.49 713.462 758.646L712.271 759.278C710.971 759.982 710.465 760.488 710.375 761.553ZM723.181 763.9C719.804 763.9 718.035 761.499 718.035 757.184C718.035 752.868 719.804 750.467 723.181 750.467C726.575 750.467 728.345 752.868 728.345 757.184C728.345 761.499 726.575 763.9 723.181 763.9ZM723.181 761.842C724.932 761.842 725.799 760.289 725.799 757.184C725.799 754.078 724.932 752.525 723.181 752.525C721.447 752.525 720.581 754.078 720.581 757.184C720.581 760.289 721.447 761.842 723.181 761.842ZM732.098 761.553H738.724V763.611H729.372L729.426 762.654C729.48 761.643 729.606 760.957 730.04 760C730.473 759.043 731.412 758.213 732.802 757.581L734.066 756.931C735.565 756.209 736.124 755.54 736.124 754.439C736.124 753.265 735.33 752.525 734.012 752.525C732.531 752.525 731.791 753.302 731.791 754.872H729.444C729.426 752.128 731.033 750.467 734.084 750.467C735.456 750.467 736.558 750.81 737.37 751.514C738.183 752.218 738.58 753.139 738.58 754.259C738.58 756.227 737.515 757.49 735.185 758.646L733.994 759.278C732.694 759.982 732.188 760.488 732.098 761.553ZM744.657 755.161C746.065 755.161 747.149 755.577 747.925 756.389C748.683 757.202 749.062 758.231 749.062 759.44C749.062 760.777 748.611 761.86 747.726 762.672C746.842 763.485 745.686 763.9 744.26 763.9C742.942 763.9 741.84 763.539 740.956 762.835C740.071 762.131 739.601 761.156 739.511 759.946H741.84C742.003 761.174 742.978 761.932 744.26 761.932C745.722 761.932 746.715 760.903 746.715 759.44C746.715 757.978 745.722 756.949 744.26 756.949C743.176 756.949 742.418 757.382 742.003 758.249H739.764L740.956 750.756H748.394V752.814H742.869L742.31 756.01C742.996 755.45 743.772 755.161 744.657 755.161Z" fill="black"/>
<path d="M648.611 686.111L645.314 691.691L642.13 697.337L635.648 697.272L629.167 697.337L625.982 691.691L622.685 686.111L625.982 680.53L629.167 674.885L635.648 674.95L642.13 674.885L645.314 680.53L648.611 686.111Z" fill="black"/>
<path d="M637.942 686.083C639.125 686.586 639.903 687.574 639.903 688.935C639.903 690.005 639.514 690.863 638.736 691.512C637.942 692.176 636.889 692.5 635.577 692.5C632.611 692.5 631.056 690.961 631.056 688.417H633.178C633.211 689.907 633.989 690.653 635.512 690.653C636.824 690.653 637.634 689.956 637.634 688.854C637.634 687.671 636.808 686.991 635.431 686.991H634.572V685.387H635.415C636.759 685.387 637.44 684.852 637.44 683.782C637.44 682.81 636.711 682.227 635.496 682.227C634.183 682.227 633.503 682.843 633.438 684.058H631.331C631.38 681.773 632.838 680.444 635.512 680.444C637.975 680.444 639.563 681.644 639.563 683.604C639.563 684.706 638.931 685.581 637.942 686.083Z" fill="white"/>
<circle cx="86.111" cy="553.704" r="2.77778" fill="black"/>
<circle cx="121.759" cy="555.093" r="2.77778" fill="black"/>
<circle cx="167.593" cy="541.666" r="2.77778" fill="black"/>
<circle cx="153.241" cy="574.074" r="2.77778" fill="black"/>
<circle cx="137.963" cy="585.648" r="2.77778" fill="black"/>
<circle cx="95.3703" cy="587.5" r="2.77778" fill="black"/>
<circle cx="84.7221" cy="606.944" r="2.77778" fill="black"/>
<circle cx="68.0556" cy="632.871" r="2.77778" fill="black"/>
<circle cx="57.4074" cy="651.389" r="2.77778" fill="black"/>
<circle cx="118.519" cy="585.185" r="2.77778" fill="black"/>
<circle cx="124.537" cy="594.444" r="2.77778" fill="black"/>
<circle cx="133.796" cy="603.704" r="2.77778" fill="black"/>
<circle cx="147.222" cy="600.926" r="2.77778" fill="black"/>
<circle cx="174.074" cy="585.648" r="2.77778" fill="black"/>
<circle cx="176.852" cy="600" r="2.77778" fill="black"/>
<circle cx="192.592" cy="599.074" r="2.77778" fill="black"/>
<circle cx="159.259" cy="639.815" r="2.77778" fill="black"/>
<circle cx="213.426" cy="621.296" r="2.77778" fill="black"/>
<circle cx="234.722" cy="604.166" r="2.77778" fill="black"/>
<circle cx="248.148" cy="601.389" r="2.77778" fill="black"/>
<circle cx="243.518" cy="572.685" r="2.77778" fill="black"/>
<circle cx="294.907" cy="581.481" r="2.77778" fill="black"/>
<circle cx="304.63" cy="578.704" r="2.77778" fill="black"/>
<circle cx="303.241" cy="571.296" r="2.77778" fill="black"/>
<circle cx="331.481" cy="561.111" r="2.77778" fill="black"/>
<circle cx="369.445" cy="441.666" r="2.77778" fill="black"/>
<circle cx="477.315" cy="391.204" r="2.77778" fill="black"/>
<circle cx="495.37" cy="312.5" r="2.77778" fill="black"/>
<circle cx="574.074" cy="214.352" r="2.77778" fill="black"/>
<circle cx="588.889" cy="71.2963" r="2.77778" fill="black"/>
<circle cx="682.407" cy="157.407" r="2.77778" fill="black"/>
<circle cx="309.722" cy="591.666" r="2.77778" fill="black"/>
<circle cx="376.389" cy="600.463" r="2.77778" fill="black"/>
<circle cx="201.852" cy="572.685" r="2.77778" fill="black"/>
<rect x="185.115" y="633.988" width="7.9623" height="7.9623" transform="rotate(45 185.115 633.988)" stroke="black" stroke-width="0.925926"/>
<rect x="218.322" y="658.525" width="7.9623" height="7.9623" transform="rotate(45 218.322 658.525)" stroke="black" stroke-width="0.925926"/>
<rect x="232.211" y="642.784" width="7.9623" height="7.9623" transform="rotate(45 232.211 642.784)" stroke="black" stroke-width="0.925926"/>
<rect x="254.433" y="627.043" width="7.9623" height="7.9623" transform="rotate(45 254.433 627.043)" stroke="black" stroke-width="0.925926"/>
<rect x="268.322" y="636.303" width="7.9623" height="7.9623" transform="rotate(45 268.322 636.303)" stroke="black" stroke-width="0.925926"/>
<rect x="369.711" y="610.84" width="7.9623" height="7.9623" transform="rotate(45 369.711 610.84)" stroke="black" stroke-width="0.925926"/>
<rect x="366.007" y="619.173" width="7.9623" height="7.9623" transform="rotate(45 366.007 619.173)" stroke="black" stroke-width="0.925926"/>
<rect x="416.47" y="621.025" width="7.9623" height="7.9623" transform="rotate(45 416.47 621.025)" stroke="black" stroke-width="0.925926"/>
<rect x="440.081" y="622.414" width="7.9623" height="7.9623" transform="rotate(45 440.081 622.414)" stroke="black" stroke-width="0.925926"/>
<rect x="478.97" y="602.507" width="7.9623" height="7.9623" transform="rotate(45 478.97 602.507)" stroke="black" stroke-width="0.925926"/>
<rect x="459.063" y="575.655" width="7.9623" height="7.9623" transform="rotate(45 459.063 575.655)" stroke="black" stroke-width="0.925926"/>
<rect x="467.859" y="550.655" width="7.9623" height="7.9623" transform="rotate(45 467.859 550.655)" stroke="black" stroke-width="0.925926"/>
<rect x="590.081" y="544.636" width="7.9623" height="7.9623" transform="rotate(45 590.081 544.636)" stroke="black" stroke-width="0.925926"/>
<rect x="625.266" y="527.507" width="7.9623" height="7.9623" transform="rotate(45 625.266 527.507)" stroke="black" stroke-width="0.925926"/>
<rect x="647.026" y="530.284" width="7.9623" height="7.9623" transform="rotate(45 647.026 530.284)" stroke="black" stroke-width="0.925926"/>
<rect x="215.278" y="581.482" width="6.01852" height="6.01852" stroke="black" stroke-width="0.925926" stroke-dasharray="1.85 1.39"/>
<rect x="236.111" y="595.37" width="6.01852" height="6.01852" stroke="black" stroke-width="0.925926" stroke-dasharray="1.85 1.39"/>
<rect x="342.13" y="609.259" width="6.01852" height="6.01852" stroke="black" stroke-width="0.925926" stroke-dasharray="1.85 1.39"/>
<rect x="362.037" y="588.426" width="6.01852" height="6.01852" stroke="black" stroke-width="0.925926" stroke-dasharray="1.85 1.39"/>
<rect x="411.111" y="637.037" width="6.01852" height="6.01852" stroke="black" stroke-width="0.925926" stroke-dasharray="1.85 1.39"/>
<rect x="456.482" y="656.482" width="6.01852" height="6.01852" stroke="black" stroke-width="0.925926" stroke-dasharray="1.85 1.39"/>
<rect x="467.593" y="656.482" width="6.01852" height="6.01852" stroke="black" stroke-width="0.925926" stroke-dasharray="1.85 1.39"/>
<rect x="546.296" y="633.796" width="6.01852" height="6.01852" stroke="black" stroke-width="0.925926" stroke-dasharray="1.85 1.39"/>
<rect x="508.796" y="686.574" width="6.01852" height="6.01852" stroke="black" stroke-width="0.925926" stroke-dasharray="1.85 1.39"/>
<rect x="556.482" y="689.352" width="6.01852" height="6.01852" stroke="black" stroke-width="0.925926" stroke-dasharray="1.85 1.39"/>
<rect x="576.389" y="696.759" width="6.01852" height="6.01852" stroke="black" stroke-width="0.925926" stroke-dasharray="1.85 1.39"/>
<rect x="418.982" y="653.704" width="6.01852" height="6.01852" stroke="black" stroke-width="0.925926" stroke-dasharray="1.85 1.39"/>
</svg>
